<svg xmlns="http://www.w3.org/2000/svg" width="30" height="30" fill="none" viewBox="0 0 30 30">
    <g clip-path="url(#a)">
        <path stroke="#CCC" stroke-miterlimit="10" stroke-width="2" d="M28.18 14.852c0 7.28-5.9 13.18-13.18 13.18-7.28 0-13.18-5.9-13.18-13.18 0-7.28 5.9-13.18 13.18-13.18 7.28 0 13.18 5.9 13.18 13.18z"/>
        <path fill="#CCC" d="M21.786 10.639a5.67 5.67 0 0 1-1.641.454 2.896 2.896 0 0 0 1.257-1.596c-.553.33-1.165.57-1.815.7a2.841 2.841 0 0 0-2.087-.911c-1.578 0-2.857 1.292-2.857 2.885 0 .225.025.446.074.657a8.087 8.087 0 0 1-5.89-3.015 2.889 2.889 0 0 0-.387 1.45c0 1.002.505 1.886 1.27 2.403a2.821 2.821 0 0 1-1.294-.362v.037a2.88 2.88 0 0 0 2.293 2.828 2.825 2.825 0 0 1-1.29.05 2.865 2.865 0 0 0 2.67 2.004 5.697 5.697 0 0 1-4.232 1.195 8.03 8.03 0 0 0 4.38 1.296c5.256 0 8.132-4.397 8.132-8.21 0-.124-.004-.248-.009-.372a5.833 5.833 0 0 0 1.426-1.493z"/>
    </g>
    <defs>
        <clipPath id="a">
            <path fill="#fff" d="M0 0h30v30H0z"/>
        </clipPath>
    </defs>
</svg>
