<svg xmlns="http://www.w3.org/2000/svg" width="30" height="30" fill="none" viewBox="0 0 30 30">
    <path stroke="#CCC" stroke-miterlimit="10" stroke-width="2" d="M28.164 14.9c0 7.27-5.894 13.164-13.164 13.164S1.836 22.17 1.836 14.9 7.73 1.736 15 1.736 28.164 7.629 28.164 14.9z"/>
    <path fill="#CCC" d="M21.786 12.417a2.07 2.07 0 0 0-2.082-2.06H9.94a2.07 2.07 0 0 0-2.082 2.06v5.523A2.07 2.07 0 0 0 9.94 20h9.765a2.07 2.07 0 0 0 2.081-2.06v-5.523zm-8.358 5.092V12.32l3.978 2.594-3.978 2.594z"/>
</svg>
