<svg xmlns="http://www.w3.org/2000/svg" width="128" height="43" fill="none" viewBox="0 0 128 43">
    <path fill="#fff" d="M61.619 15.602a9.302 9.302 0 0 1-2.739 6.758 9.78 9.78 0 0 1-13.67 0 9.247 9.247 0 0 1-2.755-6.758 9.422 9.422 0 0 1 2.723-6.806c1.813-1.873 4.1-2.809 6.86-2.809A9.194 9.194 0 0 1 58.89 8.78a9.387 9.387 0 0 1 2.729 6.822zm-4.335 0a5.644 5.644 0 0 0-1.435-3.903 5.307 5.307 0 0 0-7.608 0 5.6 5.6 0 0 0-1.451 3.903 5.519 5.519 0 0 0 1.435 3.862 5.351 5.351 0 0 0 7.591-.016 5.47 5.47 0 0 0 1.465-3.846h.003zM79.852 9.646L71.163 29.33a2.198 2.198 0 0 1-2.018 1.287 2.147 2.147 0 0 1-2.017-2.986l2.091-4.738-5.502-13.258a2.252 2.252 0 0 1 2.14-3.095 2.31 2.31 0 0 1 2.175 1.493l3.7 10.079 3.891-10.128a2.285 2.285 0 0 1 2.14-1.444 2.233 2.233 0 0 1 2.089 3.105z"/>
    <path fill="#FCD846" d="M2.452 24.597a2.17 2.17 0 0 1-2.168-2.17V8.708a2.169 2.169 0 0 1 4.17-.83c.109.263.165.545.164.83v13.72a2.165 2.165 0 0 1-2.166 2.17zM2.452 4.921a2.452 2.452 0 1 0 0-4.904 2.452 2.452 0 0 0 0 4.904z"/>
    <path fill="#fff" d="M36.18 4.845a2.455 2.455 0 1 0-1.824-1.828 2.433 2.433 0 0 0 1.824 1.828zM34.575 15.203v10.508a3.769 3.769 0 0 1-3.43 3.803 3.685 3.685 0 0 1-3.933-3.675v-1.796l-4.325-3.575v5.371a8.045 8.045 0 0 0 7.884 8.016c4.483.074 8.151-3.742 8.151-8.228V8.706a2.163 2.163 0 0 0-2.166-2.169 2.17 2.17 0 0 0-2.181 2.17v6.496z"/>
    <path fill="#fff" d="M30.893 42.029c-7.575 0-14.085-5.265-15.482-12.515a2.168 2.168 0 0 1 4.258-.82c1.004 5.216 5.725 9.01 11.224 9.01 5.5 0 10.22-3.785 11.225-9.01a2.169 2.169 0 0 1 4.257.82c-1.397 7.25-7.907 12.515-15.482 12.515z"/>
    <path fill="#FCD846" d="M24.486 8.706a9.19 9.19 0 0 0-6.845-2.793c-2.75.006-5.037.946-6.86 2.819a9.413 9.413 0 0 0-2.72 6.758v6.874a2.166 2.166 0 0 0 3.7 1.532 2.166 2.166 0 0 0 .635-1.532v-6.861a5.609 5.609 0 0 1 1.448-3.862 4.879 4.879 0 0 1 3.797-1.609 4.866 4.866 0 0 1 3.814 1.61 5.641 5.641 0 0 1 1.432 3.86v5.896a3.199 3.199 0 0 0 3.198 3.199h1.136v-9.094a9.37 9.37 0 0 0-2.735-6.797z"/>
    <g fill="#fff" opacity=".4">
        <path d="M98.962 17.435h.439c1.237 0 1.882.524 1.882 1.523 0 .838-.553 1.443-1.477 1.443-1.124 0-1.683-.765-1.683-2.037v-2.578c0-1.175.462-1.762 1.386-1.762.77 0 1.289.467 1.289 1.18 0 .805-.485 1.261-1.392 1.261h-.445v.97zm-2.06-1.609v7.506h1.232v-2.954h.029c.348.673 1.015 1.072 1.922 1.072 1.472 0 2.458-1.02 2.458-2.464 0-1.146-.604-1.86-1.802-2.133v-.017c.781-.308 1.226-.947 1.226-1.746 0-1.294-.941-2.087-2.486-2.087-1.666 0-2.579.998-2.579 2.823zM106.006 16.231c.861 0 1.443.645 1.471 1.563h-3c.063-.907.667-1.563 1.529-1.563zm1.466 3.354c-.166.525-.685.878-1.386.878-.987 0-1.615-.69-1.615-1.734v-.074h4.238v-.422c0-1.82-1.038-2.994-2.703-2.994-1.694 0-2.778 1.255-2.778 3.137 0 1.893 1.067 3.085 2.829 3.085 1.375 0 2.413-.78 2.584-1.876h-1.169zM110.027 13.927v1.42h-.873v.975h.873v3.445c0 1.158.473 1.62 1.688 1.62.274 0 .548-.022.685-.057v-.975c-.08.017-.28.029-.405.029-.502 0-.73-.234-.73-.753v-3.309h1.14v-.975h-1.14v-1.42h-1.238zM115.428 20.475c-.661 0-1.095-.343-1.095-.867 0-.514.417-.839 1.152-.89l1.478-.091v.473c0 .782-.673 1.375-1.535 1.375zm-.342.975c.787 0 1.546-.422 1.894-1.09h.028v.987h1.181v-4.135c0-1.203-.93-1.973-2.384-1.973-1.483 0-2.407.798-2.476 1.882h1.164c.108-.536.553-.878 1.266-.878.753 0 1.204.399 1.204 1.066v.462l-1.643.097c-1.426.08-2.23.725-2.23 1.774 0 1.078.821 1.808 1.996 1.808z"/>
    </g>
    <rect width="40.885" height="24.531" x="86.531" y="5.257" stroke="#fff" stroke-width="1.168" opacity=".3" rx="12.263"/>
</svg>
