<svg xmlns="http://www.w3.org/2000/svg" width="30" height="30" fill="none" viewBox="0 0 30 30">
    <path stroke="#CCC" stroke-miterlimit="10" stroke-width="2" d="M15.034 27.603c7.069 0 12.8-5.731 12.8-12.8 0-7.07-5.731-12.8-12.8-12.8-7.07 0-12.8 5.73-12.8 12.8 0 7.069 5.73 12.8 12.8 12.8z"/>
    <path fill="#CCC" d="M7.044 14.565l3.374 1.235 1.306 4.118a.4.4 0 0 0 .631.186l1.88-1.503a.57.57 0 0 1 .685-.019l3.392 2.415a.4.4 0 0 0 .623-.236l2.485-11.72c.064-.302-.24-.554-.533-.443L7.04 13.836a.388.388 0 0 0 .004.73zm4.47.578l6.594-3.982c.118-.072.24.085.139.178l-5.443 4.96a1.1 1.1 0 0 0-.35.662l-.184 1.346c-.025.18-.282.198-.333.024l-.713-2.456a.645.645 0 0 1 .29-.732z"/>
</svg>
