<svg xmlns="http://www.w3.org/2000/svg" width="50" height="50" fill="none" viewBox="0 0 50 50">
    <circle cx="25" cy="25" r="25" fill="#DDECFE"/>
    <path fill="#BAD8FF" d="M32.96 18.642a33.095 33.095 0 0 1-.14 1.955c-.026.245.02.353-.182.14-.386-.41-.434-1.044-.434-1.58-.001-1.362-.043-2.217-.205-2.835-.206-.822-.772-1.911-1.532-1.183-.818.785-2.08.913-3.108.524-.33-.096-1.145-.352-.992.21.052.188.052.313-.174.349-1.348.21-4.224.175-5.39-.916-.716-.669-.976-.356-1.403.37-.36.611-.447 1.575-.466 2.437-.017.764.129 1.804-.327 2.474-.369.544.092-.381.05-.81-.145-1.465.018-2.132 0-3.359-.015-.975.01-1.91-.025-2.871-.063-1.787.319-1.938.768-2.353.522-.481.614-.433.842-1.12.352-1.057 1.898-1.651 2.892-1.865 3.709-.797 7.712-.435 10.177 2.607.179.22.255.438.269.67.018.303-.072.632-.18 1.03-.137.51-.227 1.037-.286 1.574-.164 1.498-.087 3.068-.153 4.552z"/>
    <path fill="#1676EE" stroke="#1676EE" stroke-width=".3" d="M11.848 40.524c-.272-.224.063-.642.34-.417.276.224.555.441.842.65.288.213-.035.64-.319.435a20.77 20.77 0 0 1-.863-.668zm21.099-8.116l3.268 1.033c.61.194.563.1.12.624a14.938 14.938 0 0 1-10.73 5.292c-.402.019-.457.041-.143-.35.53-.663 1.693-1.211 2.985-1.82.798-.377.972-.307 1.357-1.155.248-.548.184-.53.808-.49.847.057 1.227-.292 1.9-.8.314-.237.596-.487.744-.694.276-.388.19-.678-.1-1.027-.125-.152-.271-.285-.4-.436-.365-.425-.245-.315.19-.177zm-7.55 5.883c.432-1.15 1.395-1.852 2.313-2.52 1.178-.858 2.287-1.666 2.317-3.237.013-.645-.037-1.35-.068-2.016-.015-.317-.066-.366.28-.191.523.264.88.826 1.266 1.435.307.484.63.995 1.078 1.443.49.49.183.657-.402 1.1-.546.412-.862.735-1.535.69-.856-.056-.989.034-1.342.811-.308.68-.4.559-1.091.885-1.117.527-2.145 1.012-2.815 1.6zm4.52-8.875l-.01-.28c-.011-.298-.02-.217.184-.436a10.088 10.088 0 0 0 2.268-3.866c.067-.208.043-.29.354-.307.22-.012.428-.084.604-.21.374-.265.523-.701.498-1.146-.115-1.244.36-1.887.6-2.937.148-.642-.14-1.282-.752-1.392-.339-.061-.289.094-.27-.328.064-1.491.001-3.07.13-4.55.03-.364.094-.7.176-1.044.17-.706.036-.66.67-.141a14.93 14.93 0 0 1 5.509 11.608c0 3.036-.903 5.861-2.455 8.222-.401.61-.254.559-.923.347l-4.04-1.278c-.449-.142-.418-.1-.667-.485-.422-.653-.847-1.222-1.527-1.457-.33-.114-.336.022-.349-.32zm-9.636-.291c-.002.055-.002.11-.006.164-.032.413.053.294-.37.354-.95.133-1.454.826-1.968 1.63-.216.337-.253.389-.653.51l-4.544 1.378a14.92 14.92 0 0 1-2.836-8.774c0-2.596.66-5.038 1.82-7.165 1.156-2.125 2.817-3.99 4.81-5.284.658-.428.539-.51.47.207-.03.32-.04.703-.022 1.17.036.977.103 1.889.118 2.885.011.756.024 1.583.064 2.448.016.349.052.225-.257.265-.64.082-1.022.639-.864 1.321.24 1.049.742 1.79.677 2.937-.04.735.406 1.47 1.146 1.419.31-.022.206-.098.33.257.427 1.229 1.027 2.394 1.871 3.412.327.395.235.336.214.866zm-.06 1.396c0 .583-.099 1.161-.087 1.733.039 1.827 1.228 2.927 2.394 4.007.643.594 1.278 1.182 1.676 1.88-.667-.521-1.614-.968-2.635-1.45-.692-.327-.784-.206-1.092-.885-.353-.777-.485-.867-1.341-.81-.476.031-.46.02-.857-.223a7.965 7.965 0 0 1-1.089-.807c-.305-.27-.323-.403.009-.761.447-.448.77-.96 1.077-1.443.475-.749.904-1.426 1.653-1.567.397-.075.294-.026.293.326zm.593-1.014c.021-.528-.069-.497.293-.184.317.275.602.537.859.774 1.132 1.043 1.753 1.614 3.309 1.613 1.556.001 2.177-.57 3.31-1.613.162-.15.335-.309.52-.475.274-.247.264-.19.28.161.045.945.129 1.858.092 2.772-.053 1.291-1.041 2.011-2.09 2.774-1.016.74-2.084 1.518-2.54 2.854-.415-.904-1.176-1.61-1.948-2.324-1.068-.988-2.156-1.995-2.215-3.576-.032-.867.094-1.888.13-2.776zm12.029-10.965a33.55 33.55 0 0 1-.144 1.991c-.026.25.02.36-.184.142-.394-.417-.442-1.062-.443-1.607 0-1.387-.043-2.258-.208-2.886-.21-.837-.786-1.946-1.56-1.205-.832.8-2.118.93-3.164.533-.337-.097-1.165-.358-1.01.213.053.193.053.32-.178.356-1.372.215-4.299.179-5.487-.932-.728-.68-.993-.363-1.428.376-.367.623-.455 1.604-.474 2.482-.018.777.13 1.836-.333 2.518-.376.554-.352.292-.395-.145-.147-1.491-.17-2.936-.188-4.184-.015-.992-.084-1.945-.12-2.923-.064-1.818.305-2.16.762-2.581.531-.49.68-.708.913-1.407.357-1.076 2.346-1.611 3.358-1.829 3.776-.811 8.13.026 10.64 3.123.182.224.26.445.273.681.018.309-.072.644-.182 1.048-.14.52-.232 1.057-.292 1.603-.167 1.525-.089 3.123-.156 4.633zM22.447 6.918c-1.254.27-3.32.855-3.765 2.193-.201.608-.303.75-.764 1.176-.342.315-.649.5-1.034.763-.174.118-.328.224-.405.274a15.61 15.61 0 0 0-5.236 5.636 15.467 15.467 0 0 0-1.888 7.427c0 4.29 1.739 8.174 4.55 10.986a15.488 15.488 0 0 0 10.986 4.55c4.29 0 8.174-1.739 10.986-4.55a15.491 15.491 0 0 0 4.55-10.986c0-4.787-2.181-9.268-5.946-12.22-.613-.482-.442-.184-.446-.869-.002-.356-.11-.695-.41-1.067-2.655-3.275-7.18-4.173-11.178-3.313zm-2.206 8.735c1.44 1.115 4.497 1.381 6.027.906.297-.092.423-.244.41-.402-.021-.284.085-.16.452-.069 1.147.285 2.23.231 3.303-.531.57-.405.745.17.9.762.152.576.191 1.41.192 2.75 0 .87.133 1.702.886 2.238.239.17.183.11.132.434-.415 2.665-1.34 5.332-3.458 7.168-.338.293-.618.551-.872.785-1.031.95-1.597 1.47-2.938 1.469-1.341 0-1.907-.52-2.938-1.47-.254-.233-.534-.491-.872-.784-2.104-1.824-3.031-4.47-3.45-7.118-.068-.427-.08-.27.241-.511 1.011-.758.83-1.988.852-3.188.016-.826.091-1.784.411-2.32.365-.613.34-.414.722-.12zm-2.586 8.364c-.287-.102-.405-.504-.388-.816.072-1.284-.43-1.955-.69-3.089-.086-.375.103-.628.414-.66.282-.03.22.053.24.297.098 1.31.281 2.675.63 3.999.054.202.147.395-.206.27zm15.926-4.632c.286.068.375.4.3.727-.258 1.126-.683 1.836-.613 3.09.014.251-.095.578-.245.68-.323.23-.373.097-.292-.213.354-1.344.496-2.662.594-3.99.017-.227-.038-.363.256-.294zm-9.524 19.966a14.937 14.937 0 0 1-9.764-4.367 15.06 15.06 0 0 1-1.203-1.357l3.685-1.118c.58-.176.429-.085.036.31-.366.366-.639.734-.285 1.228.347.486 1.332 1.14 1.864 1.42.215.113.493.095.78.076.623-.042.56-.059.807.489.385.848.56.778 1.358 1.155 1.293.61 2.456 1.158 2.986 1.822.363.453.176.366-.264.342zM5.044 27.696c.055.348-.474.436-.532.084a22 22 0 0 1-.12-.891c-.04-.347.493-.418.535-.06.033.29.072.578.117.867zm-.235-2.457c.011.352-.525.375-.538.018a21.472 21.472 0 0 1-.009-1.091c.01-.36.545-.339.539.01-.006.355-.003.709.008 1.063zm.082-2.654c-.035.355-.568.297-.536-.053.035-.362.08-.724.134-1.083.055-.355.584-.265.532.081-.053.35-.096.702-.13 1.055zm.429-2.62c-.08.341-.604.226-.524-.123.083-.355.174-.705.275-1.056.099-.34.616-.19.517.15-.098.341-.187.682-.268 1.028zm.772-2.54c-.128.335-.627.136-.503-.192.128-.34.268-.677.413-1.01.147-.327.634-.102.493.218a20.31 20.31 0 0 0-.403.983zm1.103-2.416c-.17.314-.64.055-.473-.256.174-.32.354-.635.544-.947.188-.304.64-.018.458.283-.184.303-.36.608-.529.92zm1.412-2.247c-.212.287-.641-.033-.434-.318.213-.294.434-.583.663-.866.225-.276.638.064.418.34-.223.275-.438.557-.647.844zm1.697-2.044c-.243.254-.636-.11-.39-.371.25-.264.508-.521.771-.772.263-.245.623.15.37.392-.257.244-.508.494-.751.751zm1.948-1.803c-.273.219-.616-.193-.337-.42.283-.228.57-.45.865-.663.292-.21.6.23.316.436-.287.208-.568.425-.844.647zm2.17-1.532c-.3.182-.586-.272-.28-.46.31-.19.625-.37.945-.544.317-.17.563.307.256.474-.312.169-.619.345-.921.53zm2.351-1.232c-.326.143-.538-.35-.217-.493.334-.147.668-.284 1.01-.415.327-.123.526.375.19.504-.332.127-.657.26-.983.404zm15.308-.383c-.333-.128-.138-.627.192-.503.28.108.554.22.829.339.319.14.114.636-.217.493a22.352 22.352 0 0 0-.804-.329zm2.24 1.021c-.315-.17-.055-.639.255-.474.32.172.637.35.949.538.304.186.023.641-.28.46a20.712 20.712 0 0 0-.924-.524zm2.256 1.4c-.29-.21.028-.64.315-.437.296.212.584.432.87.659.274.22-.059.642-.337.42-.278-.22-.56-.435-.848-.641zm2.052 1.685c-.255-.242.111-.635.37-.391.265.25.523.504.776.766.247.261-.148.625-.39.372a21.003 21.003 0 0 0-.756-.747zm1.814 1.94a.27.27 0 0 1 .418-.34c.23.282.452.568.669.862.21.289-.226.6-.436.317-.21-.286-.426-.564-.65-.84zm1.544 2.16c-.183-.3.271-.587.459-.282.19.31.374.623.549.942.168.31-.301.57-.473.258-.17-.31-.35-.617-.535-.918zm1.245 2.345c-.144-.329.349-.539.492-.22.149.333.288.668.42 1.008.128.332-.374.52-.503.193-.128-.33-.264-.658-.409-.981zm.924 2.489c-.099-.339.415-.493.516-.152.104.349.198.7.283 1.054.08.344-.44.47-.524.124a20.109 20.109 0 0 0-.275-1.026zm.584 2.589c-.052-.348.477-.433.532-.081.056.36.103.719.14 1.08.036.358-.498.404-.535.056a21.885 21.885 0 0 0-.137-1.055zm.238 2.645c-.007-.358.53-.363.538-.01.008.363.01.726-.002 1.089-.01.358-.547.335-.538-.015.01-.355.01-.71.002-1.064zm-.109 2.654c.04-.352.573-.295.536.058-.038.361-.087.722-.145 1.081-.057.353-.586.262-.531-.085.056-.35.103-.702.14-1.054zM37.6 40.101c.278-.226.613.193.342.417-.25.204-.505.402-.764.595-.288.213-.602-.223-.32-.432.252-.188.499-.381.743-.58zm-2.059 1.478c.298-.185.589.266.285.457-.308.193-.621.378-.94.554-.306.169-.574-.295-.26-.47.31-.173.615-.353.915-.541zm-2.338 1.257c.327-.147.54.346.222.49-.331.151-.666.293-1.005.426-.336.13-.521-.374-.196-.502.33-.13.656-.267.979-.414zm-2.485.936c.34-.1.494.413.155.516-.348.105-.699.202-1.052.288-.34.082-.477-.436-.127-.523.344-.084.685-.178 1.024-.28zm-2.586.598c.347-.054.438.475.085.532-.36.058-.72.106-1.081.146-.356.038-.407-.497-.058-.535.353-.039.704-.086 1.054-.143zm-2.644.251c.35-.008.373.528.015.539-.363.01-.727.012-1.09.003-.358-.01-.34-.545.012-.538.355.008.71.007 1.063-.004zm-2.654-.095c.349.037.302.571-.055.536a19.416 19.416 0 0 1-1.082-.14c-.355-.057-.262-.585.083-.531.35.054.703.1 1.054.135zm-2.617-.443c.348.085.215.605-.126.524a20.093 20.093 0 0 1-1.055-.281c-.344-.105-.18-.616.154-.516.34.1.682.191 1.026.273zm-2.536-.785c.334.13.132.627-.195.502-.339-.131-.675-.27-1.007-.42-.327-.148-.1-.633.22-.49.324.145.652.28.982.407zm-2.41-1.116c.314.173.05.64-.258.472a20.79 20.79 0 0 1-.944-.548c-.304-.192-.014-.642.284-.458.301.186.608.364.919.534z"/>
</svg>
