<svg xmlns="http://www.w3.org/2000/svg" width="50" height="50" fill="none" viewBox="0 0 50 50">
    <circle cx="25" cy="25" r="25" fill="#DDECFE"/>
    <path fill="#BAD8FF" d="M20.256 11.67a3.461 3.461 0 0 1 3.457-3.461h3.853a3.465 3.465 0 0 1 3.46 3.461v1.789c-1.28-.493-2.71-1.159-3.608-2.197a.397.397 0 0 0-.552-.068c-1.31.874-2.562 1.195-4.136 1.172-.614-.026-.39.075-.962.297a4.455 4.455 0 0 0-1.528.994l.016-1.987z"/>
    <path fill="#BAD8FF" fill-rule="evenodd" d="M10.933 38.041v-.21a.994.994 0 0 1 .985-.99h1.887V33.42c.003-1.941 1.022-3.467 1.866-4.316.844-.849 1.868-1.528 3.809-1.543h.044c.071 0 .141.02.203.055.03.018.152.19.23.299.082.117.113.16-.084-.147l4.753 6.933v-5.97l-.552-.77h1.915l.503-2.083h-3.075l.502 1.866-1.336-1.866a.398.398 0 0 1 .398-.505h4.025a.397.397 0 0 1 .397.505l-.707 2.495.537 3.18 2.904-5.274a.425.425 0 0 1 .35-.206 7.363 7.363 0 0 1 7.307 7.35v3.422h.259a.993.993 0 0 1 .985.99v.206h-.775v-.206a.199.199 0 0 0-.194-.195l-10.539-.036c-.471 0-.927.155-1.299.437H23.77a2.123 2.123 0 0 0-1.302-.437l-10.534.036a.2.2 0 0 0-.195.195v.206h-.806zm12.986-10.297l.059.216h.096l-.155-.216z" clip-rule="evenodd"/>
    <path fill="#1676EE" d="M18.048 18.697h.437a6.596 6.596 0 0 0 13.034 0h.437a1.558 1.558 0 0 0 1.557-1.554v-1.558a.795.795 0 0 0-.794-.794h-1.11v-3.18a4.26 4.26 0 0 0-4.255-4.27H22.65a4.256 4.256 0 0 0-4.251 4.27v3.18h-1.113a.795.795 0 0 0-.795.794v1.558a1.558 1.558 0 0 0 1.558 1.554zm6.954 4.788a5.822 5.822 0 0 1-5.81-5.813V14.95c.147-.314.998-1.848 3.326-1.848a8.778 8.778 0 0 0 4.602-1.26 8.985 8.985 0 0 0 3.695 2.384v3.438a5.826 5.826 0 0 1-5.813 5.821zm7.717-7.9v1.558a.763.763 0 0 1-.763.759h-.346v-2.317h1.109zm-13.51-3.973a3.461 3.461 0 0 1 3.456-3.461h4.69a3.465 3.465 0 0 1 3.46 3.46V13.4a8.345 8.345 0 0 1-3.318-2.333.397.397 0 0 0-.552-.067 7.765 7.765 0 0 1-4.427 1.307 4.457 4.457 0 0 0-3.326 1.292l.016-1.987zM17.3 15.585h1.113v2.317h-.366a.763.763 0 0 1-.763-.759l.016-1.558zM10.1 41.605h9.818a.966.966 0 0 1 .962.961.397.397 0 0 0 .397.398h7.45a.397.397 0 0 0 .398-.398.962.962 0 0 1 .958-.961h9.819a.397.397 0 0 0 .397-.397v-1.59a.398.398 0 0 0-.397-.397h-.863c.007-.065.007-.13 0-.195V37.73a.993.993 0 0 0-.985-.989h-.258V33.32a7.363 7.363 0 0 0-7.308-7.351.425.425 0 0 0-.35.206l-2.904 5.273-.537-3.179.708-2.495a.397.397 0 0 0-.398-.505h-4.025a.398.398 0 0 0-.397.505l.707 2.495-.533 3.147-2.884-5.245a.397.397 0 0 0-.35-.206h-.044a7.363 7.363 0 0 0-7.307 7.35v3.422h-.255a.993.993 0 0 0-.985.99v1.303c-.006.065-.006.13 0 .195H10.1a.397.397 0 0 0-.398.397v1.59a.398.398 0 0 0 .398.393zm16.518-9.04L25 35.478l-1.614-2.933.66-3.894h1.907l.664 3.914zm-.123-6.497l-.505 1.788h-1.987l-.504-1.788h2.996zm-13.51 7.252a6.568 6.568 0 0 1 6.317-6.553l5.349 9.724a.397.397 0 0 0 .695 0l5.389-9.724a6.573 6.573 0 0 1 6.286 6.553v3.421l-9.49-.036a2.892 2.892 0 0 0-2.061.855 2.86 2.86 0 0 0-.47.592 2.86 2.86 0 0 0-.46-.592 2.892 2.892 0 0 0-2.063-.855l-9.489.036-.004-3.421zm-1.244 5.71v-1.3a.199.199 0 0 1 .194-.194L22.47 37.5a2.122 2.122 0 0 1 2.134 2.126.397.397 0 0 0 .795 0 2.119 2.119 0 0 1 .624-1.506c.402-.398.945-.62 1.51-.62l10.538.036a.199.199 0 0 1 .195.194v1.3a.195.195 0 0 1-.195.195h-9.346a1.642 1.642 0 0 0-1.59 1.24h-4.267a1.642 1.642 0 0 0-1.59-1.24h-9.342a.195.195 0 0 1-.194-.195zm-1.244.993h10.78a.843.843 0 0 1 .843.843.397.397 0 0 0 .397.397h4.967a.398.398 0 0 0 .397-.397.841.841 0 0 1 .843-.843h10.78v.795h-9.421a1.76 1.76 0 0 0-1.709 1.359H21.62a1.764 1.764 0 0 0-1.712-1.359h-9.41v-.795z"/>
    <path fill="#1676EE" d="M34.105 34.659h-3.31v.795h3.31v-.795z"/>
</svg>
