<svg xmlns="http://www.w3.org/2000/svg" width="50" height="50" fill="none" viewBox="0 0 50 50">
    <circle cx="25" cy="25" r="25" fill="#DDECFE"/>
    <rect width="14.925" height="19.403" x="9.701" y="12.687" fill="#BAD8FF" rx="3"/>
    <path fill="#fff" d="M11.194 16.418h11.94v2.239h-11.94z"/>
    <rect width="14.925" height="19.403" x="26.865" y="12.687" fill="#BAD8FF" rx="3"/>
    <path fill="#1676EE" stroke="#1676EE" stroke-width=".3" d="M21.982 35.592H7.954a2.041 2.041 0 0 1-2.036-2.037v-9.708a.263.263 0 0 1 .525 0v9.709c.002.832.68 1.51 1.511 1.511h14.028a1.515 1.515 0 0 0 1.51-1.511V32.23a.263.263 0 0 1 .524 0v1.325a2.04 2.04 0 0 1-2.034 2.036zm.145-3.126a.263.263 0 1 1 0-.526.263.263 0 0 1 0 .526zm-1.75 0H10.03A1.936 1.936 0 0 1 8.1 30.534V13.54h-.145c-.832.001-1.51.68-1.51 1.512v5.295a.263.263 0 0 1-.263.262.263.263 0 0 1-.263-.262v-5.295c0-1.122.915-2.036 2.036-2.037h.407c.07 0 .137.028.186.076a.264.264 0 0 1 .077.187v17.256a1.412 1.412 0 0 0 1.406 1.407h10.347c.144 0 .262.118.262.262a.263.263 0 0 1-.262.263zM6.18 22.359a.263.263 0 1 1 0-.525.263.263 0 0 1 0 .526zM41.836 35.592h-6.15a.263.263 0 0 1 0-.525h6.15c.833-.001 1.511-.68 1.513-1.512V15.052a1.517 1.517 0 0 0-1.512-1.512h-.142V21.358a.263.263 0 0 1-.525 0v-8.08c0-.07.027-.138.077-.187a.265.265 0 0 1 .185-.076h.404a2.04 2.04 0 0 1 2.037 2.037v18.504a2.041 2.041 0 0 1-2.037 2.036zm-7.9 0a.263.263 0 1 1 0-.525.263.263 0 0 1 0 .525zm-1.75 0H27.81a2.041 2.041 0 0 1-2.037-2.037v-1.438c0-.084.041-.163.109-.213a.269.269 0 0 1 .237-.036c.14.047.296.073.446.073h13.195a1.414 1.414 0 0 0 1.409-1.407V24.86a.263.263 0 0 1 .525 0v5.675a1.938 1.938 0 0 1-1.934 1.932H26.566c-.088 0-.178-.006-.267-.019v1.108c.002.833.68 1.511 1.512 1.512h4.375a.263.263 0 0 1 0 .525zm9.246-12.222a.262.262 0 1 1-.001-.524.262.262 0 0 1 .001.524z"/>
    <path fill="#1676EE" stroke="#1676EE" stroke-width=".3" d="M25.805 35.592h-1.82a.494.494 0 0 1-.494-.494v-2.98c0-.113.072-.213.179-.25a1.41 1.41 0 0 0 .962-1.334c0-.069.028-.136.077-.185a.27.27 0 0 1 .372 0 .26.26 0 0 1 .076.185c0 .603.387 1.139.963 1.335a.262.262 0 0 1 .179.248v2.981a.494.494 0 0 1-.494.494zm-1.789-.525h1.758v-2.77a1.966 1.966 0 0 1-.879-.793 1.967 1.967 0 0 1-.879.792v2.77z"/>
    <path fill="#1676EE" stroke="#1676EE" stroke-width=".3" d="M23.226 32.466H10.03A1.936 1.936 0 0 1 8.1 30.534V17.436c0-.145.118-.263.262-.263.145 0 .263.118.263.263v13.098a1.412 1.412 0 0 0 1.406 1.407h13.196c.487 0 .948-.261 1.203-.681v-.001a.262.262 0 0 1 .362-.088.263.263 0 0 1 .088.36v.001a1.944 1.944 0 0 1-.693.677 1.932 1.932 0 0 1-.96.257zm1.669-2.514a.263.263 0 1 1 0-.525.263.263 0 0 1 0 .525zm0-1.75a.263.263 0 0 1-.263-.263V13.126c0-.774-.632-1.405-1.406-1.407H10.03a1.412 1.412 0 0 0-1.406 1.407v.809a.263.263 0 0 1-.525 0v-.81c0-1.064.867-1.93 1.931-1.931h13.196c1.064 0 1.93.867 1.931 1.931V27.94a.263.263 0 0 1-.262.263zM8.36 15.948a.263.263 0 0 1-.262-.263c0-.144.118-.262.262-.262.145 0 .263.118.263.262a.263.263 0 0 1-.263.263z"/>
    <path fill="#1676EE" stroke="#1676EE" stroke-width=".3" d="M39.76 32.466H26.567a1.937 1.937 0 0 1-1.934-1.932V17.437a.263.263 0 0 1 .525 0v13.097a1.414 1.414 0 0 0 1.409 1.407H39.76c.49 0 .95-.261 1.206-.682l.001-.001a.261.261 0 0 1 .486.137.26.26 0 0 1-.038.136v.001l-.002.003-.002.004c-.17.276-.409.51-.692.671-.29.167-.622.256-.959.256zm1.672-2.514a.262.262 0 1 1 0-.524.262.262 0 0 1 0 .524zm0-1.75a.262.262 0 0 1-.263-.263V13.126a1.414 1.414 0 0 0-1.409-1.407H26.567a1.414 1.414 0 0 0-1.41 1.407v.809a.262.262 0 1 1-.524 0v-.81c0-1.064.868-1.93 1.934-1.931H39.76c1.066 0 1.934.867 1.934 1.931V27.94a.263.263 0 0 1-.262.263zM24.895 15.949a.263.263 0 1 1 0-.526.263.263 0 0 1 0 .526zM6.512 36.896a2.04 2.04 0 0 1-2.034-2.035V31.29v-.002a.262.262 0 1 1 .524.002v3.572c.002.832.68 1.508 1.51 1.51a.263.263 0 0 1 0 .525zM44.998 19.62a.263.263 0 0 1-.262-.263v-5.453a1.517 1.517 0 0 0-1.51-1.512h-.407a.263.263 0 0 1 0-.525h.407a2.04 2.04 0 0 1 2.034 2.037v5.453a.263.263 0 0 1-.262.262z"/>
    <path fill="#1676EE" stroke="#1676EE" stroke-width=".3" d="M32.954 16.93h-5.121a.262.262 0 0 1 0-.525h5.12a.263.263 0 0 1 0 .525zM32.954 19.769h-5.121a.263.263 0 0 1 0-.525h5.12a.262.262 0 1 1 0 .525zM38.986 22.607H27.832a.263.263 0 0 1-.263-.262c0-.145.119-.263.263-.263h11.154a.263.263 0 0 1 0 .525zM38.986 25.448H27.832a.263.263 0 0 1 0-.525h11.154a.262.262 0 1 1 0 .525zM38.986 28.286H27.832a.263.263 0 0 1-.263-.263c0-.144.119-.262.263-.262h11.154a.263.263 0 0 1 0 .525zM19.953 27.765h-8.491a.263.263 0 0 1 0-.525h8.491a.263.263 0 0 1 0 .525zM19.953 29.183h-8.491a.263.263 0 0 1-.263-.262c0-.145.118-.263.263-.263h8.491a.263.263 0 0 1 0 .525zM22.767 18.632H10.255a.264.264 0 0 1-.263-.263v-2.563c0-.104.061-.198.156-.24a.262.262 0 0 1 .107-.502h12.512a.264.264 0 0 1 .263.262v3.043a.264.264 0 0 1-.263.263zm-12.25-.525h11.988v-2.518H10.402c.07.05.114.13.114.217v2.3zM14.927 20.71h-3.465a.263.263 0 0 1 0-.525h3.465a.263.263 0 0 1 0 .525zM17.504 22.475h-6.042a.263.263 0 0 1-.263-.263c0-.144.118-.262.263-.262h6.042c.144 0 .262.118.262.262a.263.263 0 0 1-.262.263zM33.74 37.681H8.465a.263.263 0 0 1 0-.525H33.74a.263.263 0 0 1 0 .525zM40.755 38.921h-17.49a.263.263 0 0 1 0-.525h17.49a.263.263 0 0 1 0 .525zM44.732 38.921h-2.188a.263.263 0 0 1 0-.525h2.188a.263.263 0 0 1 0 .525zM15.757 38.883H7.47a.263.263 0 0 1 0-.525h8.288a.263.263 0 0 1 0 .525z"/>
</svg>
