<svg xmlns="http://www.w3.org/2000/svg" width="69" height="77" fill="none" viewBox="0 0 69 77">
    <path fill="#FCD846" d="M21.341 10.83a5.411 5.411 0 1 0 0-10.822 5.411 5.411 0 0 0 0 10.823z"/>
    <path fill="#fff" d="M45.933 10.69a5.432 5.432 0 0 0 6.514-6.513 5.414 5.414 0 1 0-10.542 2.475 5.362 5.362 0 0 0 4.028 4.039zM34.259 77C17.533 77 3.193 65.376.087 49.372a4.782 4.782 0 0 1 9.39-1.814C11.7 59.072 22.113 67.43 34.259 67.43c12.145 0 22.567-8.358 24.782-19.872a4.783 4.783 0 0 1 9.39 1.814C65.354 65.376 50.984 77 34.259 77z"/>
    <path fill="#fff" d="M47.176 15.701a4.79 4.79 0 0 0-4.79 4.79v20.484a8.337 8.337 0 0 1-7.606 8.427 8.125 8.125 0 0 1-8.648-8.107 4.82 4.82 0 0 0-.08-1.082 4.729 4.729 0 0 0-3.568-3.568 4.78 4.78 0 0 0-5.872 4.62v.52a17.707 17.707 0 0 0 16.234 17.117c10.492.832 19.11-7.656 19.11-18.178V20.49a4.79 4.79 0 0 0-4.78-4.79z"/>
</svg>
