<svg xmlns="http://www.w3.org/2000/svg" width="23" height="23" fill="none" viewBox="0 0 23 23">
    <path stroke="#2992FA" stroke-linecap="round" stroke-linejoin="round" stroke-width="1.75" d="M11 13.759a2.759 2.759 0 1 0 0-5.518 2.759 2.759 0 0 0 0 5.518z"/>
    <path stroke="#2992FA" stroke-linecap="round" stroke-linejoin="round" stroke-width="1.75" d="M17.805 13.759a1.517 1.517 0 0 0 .303 1.673l.055.055a1.838 1.838 0 0 1-1.3 3.142 1.838 1.838 0 0 1-1.302-.54l-.055-.054a1.517 1.517 0 0 0-1.674-.304 1.517 1.517 0 0 0-.92 1.388v.157a1.839 1.839 0 1 1-3.678 0v-.083a1.517 1.517 0 0 0-.993-1.388 1.517 1.517 0 0 0-1.673.303l-.055.055a1.838 1.838 0 0 1-3.002-.597 1.839 1.839 0 0 1 .4-2.005l.055-.055a1.517 1.517 0 0 0 .303-1.674 1.517 1.517 0 0 0-1.389-.92h-.156a1.839 1.839 0 1 1 0-3.678h.083a1.517 1.517 0 0 0 1.388-.993 1.517 1.517 0 0 0-.303-1.673l-.055-.055A1.84 1.84 0 1 1 6.439 3.91l.055.056a1.517 1.517 0 0 0 1.674.303h.073a1.517 1.517 0 0 0 .92-1.389v-.156a1.84 1.84 0 0 1 3.678 0v.083a1.517 1.517 0 0 0 .92 1.388 1.517 1.517 0 0 0 1.673-.303l.055-.055a1.84 1.84 0 1 1 2.603 2.602l-.055.055a1.517 1.517 0 0 0-.304 1.674v.073a1.517 1.517 0 0 0 1.388.92h.157a1.84 1.84 0 0 1 0 3.678h-.083a1.517 1.517 0 0 0-1.388.92z"/>
</svg>
