<svg xmlns="http://www.w3.org/2000/svg" width="16" height="16" fill="none" viewBox="0 0 16 16">
    <path fill="#000" fill-rule="evenodd" d="M8 16c-4.4 0-8-3.6-8-8s3.6-8 8-8 8 3.6 8 8-3.6 8-8 8zM8 1.333c-3.667 0-6.667 3-6.667 6.667s3 6.667 6.667 6.667 6.667-3 6.667-6.667-3-6.667-6.667-6.667zM8 12c-.333 0-.667-.333-.667-.667v-4c0-.333.267-.666.667-.666s.667.266.667.666V11.4c0 .267-.267.6-.667.6zm0-6.667a.668.668 0 0 1-.667-.666C7.333 4.267 7.6 4 8 4c.333 0 .667.267.667.667s-.334.666-.667.666z" clip-rule="evenodd" opacity=".4"/>
</svg>
