<svg xmlns="http://www.w3.org/2000/svg" width="18" height="18" fill="none" viewBox="0 0 18 18">
    <path stroke="#2992FA" stroke-linecap="round" stroke-linejoin="round" stroke-width="1.4" d="M17.243 13.116v2.492a1.661 1.661 0 0 1-1.81 1.661 16.437 16.437 0 0 1-7.169-2.55 16.196 16.196 0 0 1-4.983-4.983A16.437 16.437 0 0 1 .73 2.535 1.661 1.661 0 0 1 2.384.725h2.492a1.661 1.661 0 0 1 1.66 1.428c.106.797.301 1.58.582 2.334a1.661 1.661 0 0 1-.374 1.752L5.69 7.294a13.289 13.289 0 0 0 4.983 4.983l1.055-1.054a1.66 1.66 0 0 1 1.752-.374 10.66 10.66 0 0 0 2.334.581 1.662 1.662 0 0 1 1.429 1.686z"/>
</svg>
