<svg xmlns="http://www.w3.org/2000/svg" width="33" height="26" fill="none" viewBox="0 0 33 26">
    <path fill="#fff" d="M16.5 9.75c-2.734 0-4.95 2.183-4.95 4.875 0 2.693 2.216 4.875 4.95 4.875 2.733 0 4.95-2.182 4.95-4.875 0-2.692-2.217-4.875-4.95-4.875zm13.2-4.875h-3.96c-.544 0-1.131-.416-1.303-.925L23.413.925C23.241.416 22.654 0 22.11 0H10.89c-.545 0-1.131.416-1.303.925L8.563 3.95c-.172.509-.759.925-1.303.925H3.3c-1.815 0-3.3 1.463-3.3 3.25V22.75C0 24.538 1.485 26 3.3 26h26.4c1.815 0 3.3-1.462 3.3-3.25V8.125c0-1.787-1.485-3.25-3.3-3.25zM16.5 22.75c-4.556 0-8.25-3.638-8.25-8.125S11.944 6.5 16.5 6.5s8.25 3.638 8.25 8.125-3.694 8.125-8.25 8.125zm12.045-12.352A1.146 1.146 0 0 1 27.39 9.26c0-.628.517-1.137 1.155-1.137s1.155.51 1.155 1.137c0 .629-.517 1.138-1.155 1.138z"/>
</svg>
